# xmcd
#
# Track frame offsets:
#	150
#	25080
#	43345
#
# Disc length: 817 seconds
#
# Revision: 0
# Processed by: cddbd v1.5.1PL0 Copyright (c) Steve Scherf et al.
# Submitted via: audiograbber 1.82.01
#
DISCID=1f032f03
DTITLE=Errol Mcgrew - Season for worship preview CD
DYEAR=2004
DGENRE=Gospel
TTITLE0=Know you more
TTITLE1=I worship you
TTITLE2=I was glad
EXTD=On Errol's soon to be released recording project  "Season for Worship" the
EXTD=re's something for everyone. Whether you like urban, pop,contemporary, or 
EXTD=R&B, you'll love it! His versatile music styles give him universal appeal.
EXTD=Although he may be new to many of you, he's not new to the music arena.  
EXTD=He's served as Worship Leader/Minister of Music for over twenty years. Err
EXTD=ol has shared the stage with such music greats as Glenn Jones, Tramaine Ha
EXTD=wkins, Stephanie Mills,and the Pointer Sisters.\nFor more information - ht
EXTD=tp://www.errolmcgrew.com
EXTT0=http://www.errolmcgrew.com
EXTT1=http://www.errolmcgrew.com
EXTT2=http://www.errolmcgrew.com
PLAYORDER=
